<svg width="48" height="48" viewBox="0 0 48 48" fill="none" xmlns="http://www.w3.org/2000/svg">
<path d="M23.9556 0C10.727 0 0 10.9079 0 24.3645C0 35.1296 6.864 44.2626 16.3823 47.4844C17.5795 47.7099 18.019 46.9558 18.019 46.3123C18.019 45.7313 17.9968 43.812 17.9865 41.776C11.3221 43.2499 9.91577 38.9013 9.91577 38.9013C8.82605 36.085 7.25593 35.3362 7.25593 35.3362C5.08245 33.824 7.41977 33.8551 7.41977 33.8551C9.82532 34.0265 11.092 36.3659 11.092 36.3659C13.2286 40.0907 16.6961 39.0139 18.0631 38.3913C18.2781 36.817 18.8989 35.7413 19.584 35.1333C14.2631 34.5172 8.66975 32.428 8.66975 23.092C8.66975 20.4319 9.60555 18.2584 11.138 16.5521C10.8893 15.938 10.0693 13.4603 11.37 10.1042C11.37 10.1042 13.3817 9.44935 17.9595 12.6017C19.8704 12.0618 21.9197 11.7911 23.9556 11.7818C25.9914 11.7911 28.0423 12.0618 29.9568 12.6017C34.5291 9.44935 36.5379 10.1042 36.5379 10.1042C37.8419 13.4603 37.0215 15.938 36.7728 16.5521C38.3088 18.2584 39.2382 20.4319 39.2382 23.092C39.2382 32.4502 33.6341 34.5107 28.2998 35.1139C29.159 35.87 29.9246 37.3528 29.9246 39.6259C29.9246 42.8856 29.8969 45.5094 29.8969 46.3123C29.8969 46.9607 30.3281 47.7204 31.5423 47.4812C41.0555 44.2558 47.9107 35.126 47.9107 24.3645C47.9107 10.9079 37.1853 0 23.9556 0Z" fill="currentColor"/>
</svg>